STARTFONT 2.1
COMMENT  
COMMENT  WARNING:  This bdf file was generated from an X server using
COMMENT  xbdfdump.  The resulting font is subject to the same copyright,
COMMENT  license, and trademark restrictions as the original font.  The
COMMENT  author and distributors of xbdfdump disclaim all liability for
COMMENT  misuse of the program or its output.
COMMENT  
FONT -phaisarn-angsana-medium-r-normal--16-160-75-75-p-75-tis620-0
SIZE 16 75 75
FONTBOUNDINGBOX 37 43 -12 -13
STARTPROPERTIES 27
FOUNDRY "Phaisarn"
FAMILY_NAME "Angsana"
WEIGHT_NAME "medium"
SLANT "r"
SETWIDTH_NAME "normal"
ADD_STYLE_NAME ""
PIXEL_SIZE 16
POINT_SIZE 160
RESOLUTION_X 75
RESOLUTION_Y 75
SPACING "p"
AVERAGE_WIDTH 75
CHARSET_REGISTRY "tis620"
CHARSET_ENCODING "0"
COPYRIGHT "Angsana by Pt-TITech 1997"
RAW_PIXELSIZE 1000
RAW_POINTSIZE 723
RAW_ASCENT 736
RAW_DESCENT 0
RAW_AVERAGE_WIDTH 2994
FACE_NAME "Angsana"
WEIGHT 10
X_HEIGHT 9
QUAD_WIDTH 13
FONT_ASCENT 30
FONT_DESCENT 10
_XMBDFED_INFO "Edited with xmbdfed 4.5."
ENDPROPERTIES
CHARS 195
STARTCHAR space
ENCODING 32
SWIDTH 300 0
DWIDTH 5 0
BBX 0 0 0 0
BITMAP
ENDCHAR
STARTCHAR exclam
ENCODING 33
SWIDTH 420 0
DWIDTH 7 0
BBX 2 14 2 0
BITMAP
C0
C0
C0
C0
C0
C0
C0
40
40
40
00
00
C0
C0
ENDCHAR
STARTCHAR quotedbl
ENCODING 34
SWIDTH 540 0
DWIDTH 9 0
BBX 6 6 1 8
BITMAP
CC
CC
CC
CC
8C
44
ENDCHAR
STARTCHAR numbersign
ENCODING 35
SWIDTH 600 0
DWIDTH 10 0
BBX 10 14 0 0
BITMAP
0880
0880
1080
1100
FFC0
1100
2100
2100
2100
FFC0
2200
4200
4200
4400
ENDCHAR
STARTCHAR dollar
ENCODING 36
SWIDTH 600 0
DWIDTH 10 0
BBX 8 17 1 -2
BITMAP
18
3E
5B
D9
D9
F8
78
38
1C
1E
1B
1B
9B
DB
FE
18
18
ENDCHAR
STARTCHAR percent
ENCODING 37
SWIDTH 1020 0
DWIDTH 17 0
BBX 16 15 1 -1
BITMAP
3008
4810
C820
CC20
CC40
CC40
4880
3108
0136
0263
0463
0463
0863
0822
101C
ENDCHAR
STARTCHAR ampersand
ENCODING 38
SWIDTH 960 0
DWIDTH 16 0
BBX 15 14 1 0
BITMAP
0300
0CC0
1840
1840
1C80
0F3C
0C18
3610
6720
43A0
C1C0
C0E2
677C
3C38
ENDCHAR
STARTCHAR apostrophe
ENCODING 39
SWIDTH 240 0
DWIDTH 4 0
BBX 2 6 1 8
BITMAP
C0
C0
C0
C0
40
40
ENDCHAR
STARTCHAR parenleft
ENCODING 40
SWIDTH 420 0
DWIDTH 7 0
BBX 6 19 1 -4
BITMAP
04
18
30
20
60
40
C0
C0
C0
C0
C0
C0
40
40
60
20
10
08
04
ENDCHAR
STARTCHAR parenright
ENCODING 41
SWIDTH 420 0
DWIDTH 7 0
BBX 6 19 0 -4
BITMAP
80
40
20
10
18
08
08
0C
0C
0C
0C
0C
0C
08
18
10
30
60
80
ENDCHAR
STARTCHAR asterisk
ENCODING 42
SWIDTH 600 0
DWIDTH 10 0
BBX 8 9 1 6
BITMAP
18
18
CB
EF
18
EF
CB
18
18
ENDCHAR
STARTCHAR plus
ENCODING 43
SWIDTH 720 0
DWIDTH 12 0
BBX 11 11 0 1
BITMAP
0400
0400
0400
0400
0400
FFE0
0400
0400
0400
0400
0400
ENDCHAR
STARTCHAR comma
ENCODING 44
SWIDTH 300 0
DWIDTH 5 0
BBX 3 5 1 -3
BITMAP
C0
E0
20
40
80
ENDCHAR
STARTCHAR minus
ENCODING 45
SWIDTH 420 0
DWIDTH 7 0
BBX 5 2 1 4
BITMAP
F8
F8
ENDCHAR
STARTCHAR period
ENCODING 46
SWIDTH 300 0
DWIDTH 5 0
BBX 2 2 2 0
BITMAP
C0
C0
ENDCHAR
STARTCHAR slash
ENCODING 47
SWIDTH 360 0
DWIDTH 6 0
BBX 6 15 0 0
BITMAP
04
04
08
08
08
10
10
10
20
20
20
40
40
40
80
ENDCHAR
STARTCHAR 0
ENCODING 48
SWIDTH 600 0
DWIDTH 10 0
BBX 9 14 1 0
BITMAP
0C00
3200
6300
4100
C180
C180
C180
C180
C180
C180
6100
6300
2200
1C00
ENDCHAR
STARTCHAR 1
ENCODING 49
SWIDTH 600 0
DWIDTH 10 0
BBX 4 14 3 0
BITMAP
20
E0
60
60
60
60
60
60
60
60
60
60
60
F0
ENDCHAR
STARTCHAR 2
ENCODING 50
SWIDTH 600 0
DWIDTH 10 0
BBX 10 14 0 0
BITMAP
1E00
3F00
4780
4380
0180
0180
0100
0200
0400
0800
1000
2040
7F80
FF80
ENDCHAR
STARTCHAR 3
ENCODING 51
SWIDTH 600 0
DWIDTH 10 0
BBX 8 14 1 0
BITMAP
3C
4E
86
06
04
08
3E
0E
03
01
01
02
C6
F8
ENDCHAR
STARTCHAR 4
ENCODING 52
SWIDTH 600 0
DWIDTH 10 0
BBX 9 14 0 0
BITMAP
0300
0700
0700
0B00
1300
2300
4300
4300
FF80
FF80
0300
0300
0300
0300
ENDCHAR
STARTCHAR 5
ENCODING 53
SWIDTH 600 0
DWIDTH 10 0
BBX 8 14 1 0
BITMAP
1F
1F
20
20
78
7E
06
03
03
01
01
02
C6
78
ENDCHAR
STARTCHAR 6
ENCODING 54
SWIDTH 600 0
DWIDTH 10 0
BBX 9 14 1 0
BITMAP
0780
0800
3000
2000
6000
7E00
E300
C380
C180
C180
C180
6100
2200
1C00
ENDCHAR
STARTCHAR 7
ENCODING 55
SWIDTH 600 0
DWIDTH 10 0
BBX 9 14 1 0
BITMAP
7F80
7F80
8100
8100
0300
0200
0200
0600
0400
0400
0800
0800
0800
1000
ENDCHAR
STARTCHAR 8
ENCODING 56
SWIDTH 600 0
DWIDTH 10 0
BBX 8 14 1 0
BITMAP
3C
42
81
81
E3
76
38
2E
47
C3
C1
C1
62
3C
ENDCHAR
STARTCHAR 9
ENCODING 57
SWIDTH 600 0
DWIDTH 10 0
BBX 9 14 1 0
BITMAP
1C00
2200
4300
C180
C180
C180
E180
7380
3F00
0300
0600
0C00
1800
E000
ENDCHAR
STARTCHAR colon
ENCODING 58
SWIDTH 360 0
DWIDTH 6 0
BBX 2 10 2 0
BITMAP
C0
C0
00
00
00
00
00
00
C0
C0
ENDCHAR
STARTCHAR semicolon
ENCODING 59
SWIDTH 360 0
DWIDTH 6 0
BBX 3 13 2 -3
BITMAP
C0
C0
00
00
00
00
00
00
C0
E0
20
40
80
ENDCHAR
STARTCHAR less
ENCODING 60
SWIDTH 720 0
DWIDTH 12 0
BBX 11 10 0 2
BITMAP
0020
01C0
0600
1800
E000
6000
1800
0600
01C0
0020
ENDCHAR
STARTCHAR equal
ENCODING 61
SWIDTH 720 0
DWIDTH 12 0
BBX 11 4 0 5
BITMAP
FFE0
0000
0000
FFE0
ENDCHAR
STARTCHAR greater
ENCODING 62
SWIDTH 720 0
DWIDTH 12 0
BBX 11 10 0 2
BITMAP
8000
7000
0C00
0300
00C0
00E0
0300
0C00
7000
8000
ENDCHAR
STARTCHAR question
ENCODING 63
SWIDTH 540 0
DWIDTH 9 0
BBX 7 14 1 0
BITMAP
38
4C
86
C6
86
0C
0C
08
10
10
10
00
30
30
ENDCHAR
STARTCHAR at
ENCODING 64
SWIDTH 1140 0
DWIDTH 19 0
BBX 18 20 1 -5
BITMAP
01F000
060C00
080200
100100
200100
406880
409880
411080
821080
861080
843100
8C2100
8C6200
8FA440
463840
400080
200100
100600
0E0800
01F000
ENDCHAR
STARTCHAR A
ENCODING 65
SWIDTH 900 0
DWIDTH 15 0
BBX 15 14 0 0
BITMAP
0100
0180
0380
0380
04C0
04C0
0860
0820
1FF0
1030
2018
2018
601C
F03E
ENDCHAR
STARTCHAR B
ENCODING 66
SWIDTH 840 0
DWIDTH 14 0
BBX 13 14 0 0
BITMAP
FF00
30E0
3030
3030
3030
3060
3FC0
3070
3030
3018
3018
3030
30F0
FF80
ENDCHAR
STARTCHAR C
ENCODING 67
SWIDTH 840 0
DWIDTH 14 0
BBX 13 14 1 0
BITMAP
0788
1870
3010
6008
6008
C000
C000
C000
C000
C000
6008
6010
3860
0F80
ENDCHAR
STARTCHAR D
ENCODING 68
SWIDTH 900 0
DWIDTH 15 0
BBX 14 14 0 0
BITMAP
FF80
3070
3038
3018
3008
300C
300C
300C
300C
300C
3018
3038
3060
FF80
ENDCHAR
STARTCHAR E
ENCODING 69
SWIDTH 780 0
DWIDTH 13 0
BBX 12 14 0 0
BITMAP
FFE0
3020
3020
3000
3040
3040
3FC0
3040
3040
3000
3010
3010
3020
FFE0
ENDCHAR
STARTCHAR F
ENCODING 70
SWIDTH 720 0
DWIDTH 12 0
BBX 11 14 0 0
BITMAP
FFE0
3060
3020
3000
3080
3080
3F80
3080
3080
3000
3000
3000
3000
FC00
ENDCHAR
STARTCHAR G
ENCODING 71
SWIDTH 900 0
DWIDTH 15 0
BBX 14 14 1 0
BITMAP
0790
1870
3010
6010
4000
C000
C07C
C030
C030
E030
6030
7030
1C30
07C0
ENDCHAR
STARTCHAR H
ENCODING 72
SWIDTH 900 0
DWIDTH 15 0
BBX 15 14 0 0
BITMAP
FC7E
3018
3018
3018
3018
3018
3018
3FF8
3018
3018
3018
3018
3018
FC7E
ENDCHAR
STARTCHAR I
ENCODING 73
SWIDTH 420 0
DWIDTH 7 0
BBX 6 14 1 0
BITMAP
FC
30
30
30
30
30
30
30
30
30
30
30
30
FC
ENDCHAR
STARTCHAR J
ENCODING 74
SWIDTH 480 0
DWIDTH 8 0
BBX 8 14 0 0
BITMAP
3F
0C
0C
0C
0C
0C
0C
0C
0C
0C
0C
4C
E8
70
ENDCHAR
STARTCHAR K
ENCODING 75
SWIDTH 900 0
DWIDTH 15 0
BBX 15 14 0 0
BITMAP
FC7C
3070
3040
3080
3180
3200
3C00
3600
3380
31C0
30E0
3070
307C
FCFE
ENDCHAR
STARTCHAR L
ENCODING 76
SWIDTH 780 0
DWIDTH 13 0
BBX 12 14 0 0
BITMAP
FC00
3000
3000
3000
3000
3000
3000
3000
3000
3000
3010
3010
3020
FFE0
ENDCHAR
STARTCHAR M
ENCODING 77
SWIDTH 1140 0
DWIDTH 19 0
BBX 18 14 0 0
BITMAP
F003C0
380700
380700
3C0F00
2C0B00
2E1B00
261300
271300
232300
23A300
21C300
21C300
208300
F88FC0
ENDCHAR
STARTCHAR N
ENCODING 78
SWIDTH 900 0
DWIDTH 15 0
BBX 15 14 0 0
BITMAP
F03E
7008
3808
3C08
2E08
2708
2388
21C8
20E8
2068
2078
2038
2018
F808
ENDCHAR
STARTCHAR O
ENCODING 79
SWIDTH 900 0
DWIDTH 15 0
BBX 13 14 1 0
BITMAP
0F80
10E0
6030
6030
C018
C018
C018
C018
C018
C018
6030
6020
3840
0F80
ENDCHAR
STARTCHAR P
ENCODING 80
SWIDTH 720 0
DWIDTH 12 0
BBX 11 14 0 0
BITMAP
FF00
31C0
3060
3060
3060
3040
31C0
3F80
3000
3000
3000
3000
3000
FC00
ENDCHAR
STARTCHAR Q
ENCODING 81
SWIDTH 900 0
DWIDTH 15 0
BBX 13 18 1 -4
BITMAP
0F80
18C0
2020
6030
C038
C018
C018
C018
C018
C018
6010
6030
3060
1DC0
0700
0380
00C0
0038
ENDCHAR
STARTCHAR R
ENCODING 82
SWIDTH 840 0
DWIDTH 14 0
BBX 14 14 0 0
BITMAP
FE00
31C0
30E0
3060
3060
31C0
3F00
3300
3180
31C0
30C0
3060
3070
FC3C
ENDCHAR
STARTCHAR S
ENCODING 83
SWIDTH 720 0
DWIDTH 12 0
BBX 10 14 1 0
BITMAP
1C80
6380
C080
C080
E080
7000
3E00
0F80
03C0
80C0
80C0
C0C0
E180
9E00
ENDCHAR
STARTCHAR T
ENCODING 84
SWIDTH 780 0
DWIDTH 13 0
BBX 11 14 1 0
BITMAP
FFE0
8C20
8C20
0C00
0C00
0C00
0C00
0C00
0C00
0C00
0C00
0C00
0C00
3F00
ENDCHAR
STARTCHAR U
ENCODING 85
SWIDTH 900 0
DWIDTH 15 0
BBX 15 14 0 0
BITMAP
FC3E
3008
3008
3008
3008
3008
3008
3008
3008
3008
3008
1810
1C30
03C0
ENDCHAR
STARTCHAR V
ENCODING 86
SWIDTH 900 0
DWIDTH 15 0
BBX 15 14 0 0
BITMAP
FC1E
780C
3808
1808
1810
0C10
0C10
0620
0620
0340
0340
0180
0180
0080
ENDCHAR
STARTCHAR W
ENCODING 87
SWIDTH 1200 0
DWIDTH 20 0
BBX 20 14 0 0
BITMAP
F9F0F0
70E060
306040
306040
186040
187080
1C7080
0C9900
0C9900
069D00
070E00
070E00
030400
020400
ENDCHAR
STARTCHAR X
ENCODING 88
SWIDTH 900 0
DWIDTH 15 0
BBX 15 14 0 0
BITMAP
FC3E
3818
1810
0C20
0640
0780
0380
0380
05C0
08E0
0870
1038
701C
F87E
ENDCHAR
STARTCHAR Y
ENCODING 89
SWIDTH 900 0
DWIDTH 15 0
BBX 15 14 0 0
BITMAP
FC3E
380C
1808
1C10
0E20
0620
0340
0180
0180
0180
0180
0180
0380
07E0
ENDCHAR
STARTCHAR Z
ENCODING 90
SWIDTH 780 0
DWIDTH 13 0
BBX 12 14 0 0
BITMAP
3FF0
6060
40C0
4180
0380
0300
0600
0E00
0C00
1800
3010
7010
6030
FFE0
ENDCHAR
STARTCHAR bracketleft
ENCODING 91
SWIDTH 420 0
DWIDTH 7 0
BBX 5 18 2 -4
BITMAP
F8
80
80
80
80
80
80
80
80
80
80
80
80
80
80
80
80
F8
ENDCHAR
STARTCHAR backslash
ENCODING 92
SWIDTH 360 0
DWIDTH 6 0
BBX 6 15 0 0
BITMAP
80
40
40
40
20
20
20
10
10
10
08
08
08
04
04
ENDCHAR
STARTCHAR bracketright
ENCODING 93
SWIDTH 420 0
DWIDTH 7 0
BBX 4 18 1 -4
BITMAP
F0
10
10
10
10
10
10
10
10
10
10
10
10
10
10
10
10
F0
ENDCHAR
STARTCHAR asciicircum
ENCODING 94
SWIDTH 600 0
DWIDTH 10 0
BBX 9 7 0 7
BITMAP
0800
1400
1400
2200
2100
4100
8080
ENDCHAR
STARTCHAR underscore
ENCODING 95
SWIDTH 600 0
DWIDTH 10 0
BBX 11 1 0 -5
BITMAP
FFE0
ENDCHAR
STARTCHAR grave
ENCODING 96
SWIDTH 420 0
DWIDTH 7 0
BBX 3 3 1 11
BITMAP
C0
60
20
ENDCHAR
STARTCHAR a
ENCODING 97
SWIDTH 540 0
DWIDTH 9 0
BBX 9 10 1 0
BITMAP
3800
4600
C600
4600
1E00
6600
C600
C600
CE80
7700
ENDCHAR
STARTCHAR b
ENCODING 98
SWIDTH 600 0
DWIDTH 10 0
BBX 10 15 0 0
BITMAP
3000
F000
3000
3000
3000
3700
3780
3980
31C0
30C0
30C0
30C0
3180
3900
0E00
ENDCHAR
STARTCHAR c
ENCODING 99
SWIDTH 540 0
DWIDTH 9 0
BBX 8 10 1 0
BITMAP
18
24
46
C0
C0
C0
E1
62
3C
18
ENDCHAR
STARTCHAR d
ENCODING 100
SWIDTH 600 0
DWIDTH 10 0
BBX 10 15 1 0
BITMAP
0300
0700
0300
0300
0300
1B00
2700
6300
C300
C300
C300
C300
E300
6740
3B80
ENDCHAR
STARTCHAR e
ENCODING 101
SWIDTH 540 0
DWIDTH 9 0
BBX 9 10 1 0
BITMAP
3C00
4600
4600
8300
FF00
8000
8080
6100
7E00
3C00
ENDCHAR
STARTCHAR f
ENCODING 102
SWIDTH 420 0
DWIDTH 7 0
BBX 8 15 1 0
BITMAP
06
1B
11
30
30
30
FC
30
30
30
30
30
30
30
FC
ENDCHAR
STARTCHAR g
ENCODING 103
SWIDTH 600 0
DWIDTH 10 0
BBX 9 15 1 -5
BITMAP
3C00
6780
C300
C300
C300
6600
3C00
4000
FF00
7F00
4080
8080
8080
E300
7E00
ENDCHAR
STARTCHAR h
ENCODING 104
SWIDTH 600 0
DWIDTH 10 0
BBX 9 15 1 0
BITMAP
6000
E000
6000
6000
6000
6E00
7700
6300
6300
6300
6300
6300
6300
6300
FF80
ENDCHAR
STARTCHAR i
ENCODING 105
SWIDTH 360 0
DWIDTH 6 0
BBX 4 15 1 0
BITMAP
60
60
00
00
00
E0
60
60
60
60
60
60
60
60
F0
ENDCHAR
STARTCHAR j
ENCODING 106
SWIDTH 360 0
DWIDTH 6 0
BBX 6 20 -2 -5
BITMAP
0C
0C
00
00
00
0C
1C
0C
0C
0C
0C
0C
0C
0C
0C
0C
0C
08
C8
70
ENDCHAR
STARTCHAR k
ENCODING 107
SWIDTH 600 0
DWIDTH 10 0
BBX 10 15 1 0
BITMAP
2000
E000
6000
6000
6000
6000
6780
6200
6400
6800
7800
6C00
6600
6300
F7C0
ENDCHAR
STARTCHAR l
ENCODING 108
SWIDTH 360 0
DWIDTH 6 0
BBX 5 15 0 0
BITMAP
30
F0
30
30
30
30
30
30
30
30
30
30
30
30
F8
ENDCHAR
STARTCHAR m
ENCODING 109
SWIDTH 960 0
DWIDTH 16 0
BBX 16 10 0 0
BITMAP
F73C
39CE
3186
3186
3186
3186
3186
3186
3186
FBDF
ENDCHAR
STARTCHAR n
ENCODING 110
SWIDTH 600 0
DWIDTH 10 0
BBX 10 10 0 0
BITMAP
F700
3980
3180
3180
3180
3180
3180
3180
3180
FBC0
ENDCHAR
STARTCHAR o
ENCODING 111
SWIDTH 600 0
DWIDTH 10 0
BBX 9 10 1 0
BITMAP
1C00
2600
4300
C180
C180
C180
E180
6100
7200
1C00
ENDCHAR
STARTCHAR p
ENCODING 112
SWIDTH 600 0
DWIDTH 10 0
BBX 9 14 1 -4
BITMAP
2E00
EF00
7300
6380
6180
6180
6180
6300
6200
7C00
6000
6000
6000
F000
ENDCHAR
STARTCHAR q
ENCODING 113
SWIDTH 600 0
DWIDTH 10 0
BBX 9 14 1 -4
BITMAP
1D00
2300
6300
C300
C300
C300
E300
7300
7F00
3B00
0300
0300
0300
0780
ENDCHAR
STARTCHAR r
ENCODING 114
SWIDTH 420 0
DWIDTH 7 0
BBX 7 10 0 0
BITMAP
36
FE
30
30
30
30
30
30
30
F8
ENDCHAR
STARTCHAR s
ENCODING 115
SWIDTH 480 0
DWIDTH 8 0
BBX 6 10 1 0
BITMAP
7C
84
84
E0
70
3C
1C
84
84
F8
ENDCHAR
STARTCHAR t
ENCODING 116
SWIDTH 360 0
DWIDTH 6 0
BBX 6 12 0 0
BITMAP
10
10
30
F8
30
30
30
30
30
30
34
18
ENDCHAR
STARTCHAR u
ENCODING 117
SWIDTH 600 0
DWIDTH 10 0
BBX 10 9 0 0
BITMAP
F380
3180
3180
3180
3180
3180
3180
3380
1DC0
ENDCHAR
STARTCHAR v
ENCODING 118
SWIDTH 600 0
DWIDTH 10 0
BBX 10 9 0 0
BITMAP
F9C0
7080
3080
1900
1900
0900
0E00
0400
0400
ENDCHAR
STARTCHAR w
ENCODING 119
SWIDTH 900 0
DWIDTH 15 0
BBX 15 9 0 0
BITMAP
F7CE
6384
2184
3188
32C8
12D0
1C70
0C60
0820
ENDCHAR
STARTCHAR x
ENCODING 120
SWIDTH 600 0
DWIDTH 10 0
BBX 10 9 0 0
BITMAP
FB80
7100
3A00
1C00
0C00
1600
2300
4180
E7C0
ENDCHAR
STARTCHAR y
ENCODING 121
SWIDTH 600 0
DWIDTH 10 0
BBX 10 14 0 -5
BITMAP
F1C0
6080
2080
3100
3100
1A00
1A00
0C00
0C00
0400
0800
0800
F000
6000
ENDCHAR
STARTCHAR z
ENCODING 122
SWIDTH 540 0
DWIDTH 9 0
BBX 9 9 0 0
BITMAP
7F80
4300
4600
0C00
1800
1800
3080
6080
FF80
ENDCHAR
STARTCHAR braceleft
ENCODING 123
SWIDTH 600 0
DWIDTH 10 0
BBX 6 20 3 -5
BITMAP
0C
10
20
20
20
20
30
20
20
C0
40
20
20
30
20
20
20
20
10
0C
ENDCHAR
STARTCHAR bar
ENCODING 124
SWIDTH 240 0
DWIDTH 4 0
BBX 1 20 2 -5
BITMAP
80
80
80
80
80
80
80
80
80
80
80
80
80
80
80
80
80
80
80
80
ENDCHAR
STARTCHAR braceright
ENCODING 125
SWIDTH 600 0
DWIDTH 10 0
BBX 6 20 2 -5
BITMAP
C0
20
10
10
10
10
30
10
10
0C
08
10
10
30
10
10
10
10
20
C0
ENDCHAR
STARTCHAR asciitilde
ENCODING 126
SWIDTH 660 0
DWIDTH 11 0
BBX 11 3 0 4
BITMAP
7020
4E20
81C0
ENDCHAR
STARTCHAR C001122
ENCODING 133
SWIDTH 1260 0
DWIDTH 21 0
BBX 17 2 2 0
BITMAP
C0C180
C0C180
ENDCHAR
STARTCHAR C001107
ENCODING 145
SWIDTH 420 0
DWIDTH 7 0
BBX 3 5 2 9
BITMAP
60
40
80
E0
60
ENDCHAR
STARTCHAR C001110
ENCODING 146
SWIDTH 420 0
DWIDTH 7 0
BBX 3 5 2 9
BITMAP
C0
E0
20
20
C0
ENDCHAR
STARTCHAR C001113
ENCODING 147
SWIDTH 540 0
DWIDTH 9 0
BBX 8 5 1 9
BITMAP
63
42
84
E7
63
ENDCHAR
STARTCHAR C001114
ENCODING 148
SWIDTH 540 0
DWIDTH 9 0
BBX 8 5 1 11
BITMAP
C6
E7
21
21
C6
ENDCHAR
STARTCHAR C001121
ENCODING 149
SWIDTH 420 0
DWIDTH 7 0
BBX 5 5 1 4
BITMAP
70
F8
F8
F8
70
ENDCHAR
STARTCHAR C001103
ENCODING 150
SWIDTH 600 0
DWIDTH 10 0
BBX 11 1 0 5
BITMAP
FFE0
ENDCHAR
STARTCHAR C001104
ENCODING 151
SWIDTH 1260 0
DWIDTH 21 0
BBX 21 1 0 5
BITMAP
FFFFF8
ENDCHAR
STARTCHAR exclamdown
ENCODING 161
SWIDTH 780 0
DWIDTH 13 0
BBX 10 13 1 0
BITMAP
1E00
6180
80C0
F8C0
60C0
60C0
60C0
60C0
60C0
60C0
60C0
60C0
6080
ENDCHAR
STARTCHAR cent
ENCODING 162
SWIDTH 780 0
DWIDTH 13 0
BBX 10 13 1 0
BITMAP
3840
48C0
8CC0
ECC0
9CC0
6CC0
0CC0
0CC0
0CC0
0CC0
0CC0
0580
0300
ENDCHAR
STARTCHAR sterling
ENCODING 163
SWIDTH 900 0
DWIDTH 15 0
BBX 12 13 1 0
BITMAP
4C10
6E30
7630
9630
8630
B630
5630
3630
0630
0630
0630
0220
01C0
ENDCHAR
STARTCHAR currency
ENCODING 164
SWIDTH 780 0
DWIDTH 13 0
BBX 10 13 1 0
BITMAP
3F00
4380
41C0
98C0
A4C0
E4C0
78C0
60C0
60C0
60C0
60C0
60C0
60C0
ENDCHAR
STARTCHAR yen
ENCODING 165
SWIDTH 780 0
DWIDTH 13 0
BBX 10 13 1 0
BITMAP
1200
7F80
4D80
40C0
98C0
A4C0
E4C0
78C0
60C0
60C0
60C0
60C0
60C0
ENDCHAR
STARTCHAR brokenbar
ENCODING 166
SWIDTH 960 0
DWIDTH 16 0
BBX 13 13 1 0
BITMAP
4C08
6E18
9618
8618
8618
9618
5618
3618
0618
0F98
1678
1638
0C18
ENDCHAR
STARTCHAR section
ENCODING 167
SWIDTH 600 0
DWIDTH 10 0
BBX 7 13 1 0
BITMAP
0C
16
16
0E
06
86
86
46
26
36
1E
0E
06
ENDCHAR
STARTCHAR diaeresis
ENCODING 168
SWIDTH 660 0
DWIDTH 11 0
BBX 8 13 1 0
BITMAP
38
46
83
33
5B
5B
3B
1B
1B
1B
1B
0A
04
ENDCHAR
STARTCHAR copyright
ENCODING 169
SWIDTH 840 0
DWIDTH 14 0
BBX 11 13 1 0
BITMAP
3E00
C380
81C0
70C0
98C0
98C0
78C0
18C0
1BC0
1CC0
1920
1920
18C0
ENDCHAR
STARTCHAR ordfeminine
ENCODING 170
SWIDTH 780 0
DWIDTH 13 0
BBX 12 13 1 0
BITMAP
3870
4E60
86C0
B780
5680
66C0
06C0
06C0
06C0
06C0
0680
0680
1F00
ENDCHAR
STARTCHAR guillemotleft
ENCODING 171
SWIDTH 840 0
DWIDTH 14 0
BBX 13 13 1 0
BITMAP
2C38
6C30
7670
9660
8780
B6C0
D660
2660
0660
0660
0660
06C0
0FC0
ENDCHAR
STARTCHAR notsign
ENCODING 172
SWIDTH 960 0
DWIDTH 16 0
BBX 13 13 1 0
BITMAP
1C08
6318
4198
8198
F998
6198
6198
6198
6198
7398
4DD8
4DB8
3318
ENDCHAR
STARTCHAR hyphen
ENCODING 173
SWIDTH 1020 0
DWIDTH 17 0
BBX 14 19 1 -6
BITMAP
3E04
430C
418C
818C
F98C
618C
618C
618C
618C
798C
658C
6488
3870
00CC
01CC
00CC
008C
0198
00F0
ENDCHAR
STARTCHAR registered
ENCODING 174
SWIDTH 780 0
DWIDTH 13 0
BBX 11 19 1 -6
BITMAP
0F00
31C0
40C0
4060
7C60
3060
3060
3060
3060
7060
9060
9060
6260
0260
1C60
2660
2560
18E0
0060
ENDCHAR
STARTCHAR macron
ENCODING 175
SWIDTH 840 0
DWIDTH 14 0
BBX 11 19 1 -6
BITMAP
1F00
31C0
40C0
4060
7C60
3060
3060
3060
3060
7060
9060
9060
6260
0460
3460
4C60
4C60
3BE0
0060
ENDCHAR
STARTCHAR degree
ENCODING 176
SWIDTH 720 0
DWIDTH 12 0
BBX 9 19 1 -6
BITMAP
3C80
6700
7C00
4600
3300
5B00
5B00
3B00
1B00
1B00
1B00
1B00
0600
1600
6900
B900
BF00
6900
0F00
ENDCHAR
STARTCHAR plusminus
ENCODING 177
SWIDTH 1020 0
DWIDTH 17 0
BBX 14 13 1 0
BITMAP
2C38
6E7C
564C
864C
868C
968C
568C
270C
070C
070C
070C
060C
060C
ENDCHAR
STARTCHAR twosuperior
ENCODING 178
SWIDTH 1020 0
DWIDTH 17 0
BBX 14 13 1 0
BITMAP
1304
7F8C
4CCC
80CC
8CCC
92CC
5ACC
4CCC
78CC
73EC
62DC
62DC
618C
ENDCHAR
STARTCHAR threesuperior
ENCODING 179
SWIDTH 1020 0
DWIDTH 17 0
BBX 14 13 1 0
BITMAP
3C08
4318
8398
8198
F998
6198
6198
6198
6198
79B8
65D4
2594
3998
ENDCHAR
STARTCHAR acute
ENCODING 180
SWIDTH 780 0
DWIDTH 13 0
BBX 10 13 1 0
BITMAP
1E00
6180
41C0
80C0
8CC0
92C0
92C0
4EC0
6CC0
70C0
70C0
60C0
60C0
ENDCHAR
STARTCHAR mu
ENCODING 181
SWIDTH 780 0
DWIDTH 13 0
BBX 10 13 1 0
BITMAP
1100
6B80
44C0
80C0
8CC0
92C0
92C0
4CC0
64C0
78C0
70C0
60C0
60C0
ENDCHAR
STARTCHAR paragraph
ENCODING 182
SWIDTH 780 0
DWIDTH 13 0
BBX 10 13 1 0
BITMAP
3E00
4180
4180
80C0
F8C0
60C0
60C0
60C0
60C0
78C0
64C0
6CC0
1880
ENDCHAR
STARTCHAR periodcentered
ENCODING 183
SWIDTH 840 0
DWIDTH 14 0
BBX 12 13 1 0
BITMAP
70C0
9960
9930
7930
1A30
1A30
1A30
1A30
1C30
1C30
1C30
1830
1830
ENDCHAR
STARTCHAR cedilla
ENCODING 184
SWIDTH 720 0
DWIDTH 12 0
BBX 10 13 1 0
BITMAP
3C40
5F80
9980
F800
1E00
1980
1980
1980
1980
1980
1980
1980
7F00
ENDCHAR
STARTCHAR onesuperior
ENCODING 185
SWIDTH 900 0
DWIDTH 15 0
BBX 12 13 1 0
BITMAP
7020
9860
9860
7860
1860
1860
1860
1860
1860
19E0
1E90
1890
1860
ENDCHAR
STARTCHAR masculine
ENCODING 186
SWIDTH 840 0
DWIDTH 14 0
BBX 12 13 1 0
BITMAP
7030
9830
9830
7830
1830
1830
1830
1830
1830
1830
1830
1830
3FE0
ENDCHAR
STARTCHAR guillemotright
ENCODING 187
SWIDTH 840 0
DWIDTH 14 0
BBX 12 21 1 0
BITMAP
0010
0030
0030
0030
0030
0030
0030
0030
7030
9830
9830
7830
1830
1830
1830
1830
1830
1830
1830
1830
3FE0
ENDCHAR
STARTCHAR onequarter
ENCODING 188
SWIDTH 780 0
DWIDTH 13 0
BBX 10 13 1 0
BITMAP
30C0
C8C0
C8C0
F0C0
C0C0
C4C0
CCC0
D2C0
D1C0
E1C0
C0C0
C0C0
C080
ENDCHAR
STARTCHAR onehalf
ENCODING 189
SWIDTH 780 0
DWIDTH 13 0
BBX 10 21 1 0
BITMAP
0040
00C0
00C0
00C0
00C0
00C0
00C0
00C0
30C0
C8C0
C8C0
F0C0
C0C0
C4C0
CCC0
D2C0
D1C0
E1C0
C0C0
C0C0
C080
ENDCHAR
STARTCHAR threequarters
ENCODING 190
SWIDTH 900 0
DWIDTH 15 0
BBX 12 13 1 0
BITMAP
7130
9930
99B0
7AB0
1AB0
1AB0
1A70
1A70
1C70
1C70
1C70
1830
1830
ENDCHAR
STARTCHAR questiondown
ENCODING 191
SWIDTH 900 0
DWIDTH 15 0
BBX 12 20 1 0
BITMAP
0010
0030
0030
0030
0030
0030
0030
6130
9930
99B0
7AB0
1AB0
1AB0
1A70
1A70
1C70
1C70
1C70
1830
1830
ENDCHAR
STARTCHAR Agrave
ENCODING 192
SWIDTH 780 0
DWIDTH 13 0
BBX 10 13 1 0
BITMAP
1E00
3380
41C0
40C0
7CC0
30C0
30C0
30C0
30C0
70C0
90C0
90C0
6080
ENDCHAR
STARTCHAR Aacute
ENCODING 193
SWIDTH 780 0
DWIDTH 13 0
BBX 11 13 1 0
BITMAP
6020
9060
9860
7860
1860
1860
1860
1860
3860
5E60
DB60
59E0
30C0
ENDCHAR
STARTCHAR Acircumflex
ENCODING 194
SWIDTH 660 0
DWIDTH 11 0
BBX 8 13 1 0
BITMAP
31
4B
CB
B3
43
7B
C3
C3
C3
C3
C3
62
1C
ENDCHAR
STARTCHAR Atilde
ENCODING 195
SWIDTH 660 0
DWIDTH 11 0
BBX 9 13 1 0
BITMAP
3880
4F00
8600
C000
3C00
0600
0600
0600
0600
1E00
2600
2400
1800
ENDCHAR
STARTCHAR Adiaeresis
ENCODING 196
SWIDTH 780 0
DWIDTH 13 0
BBX 10 18 1 -5
BITMAP
3E00
4180
4180
80C0
F8C0
60C0
60C0
60C0
60C0
78C0
64C0
6CC0
18C0
00C0
00C0
00C0
00C0
0080
ENDCHAR
STARTCHAR Aring
ENCODING 197
SWIDTH 780 0
DWIDTH 13 0
BBX 10 13 1 0
BITMAP
1E00
6180
80C0
1EC0
31C0
60C0
60C0
60C0
60C0
78C0
64C0
64C0
38C0
ENDCHAR
STARTCHAR AE
ENCODING 198
SWIDTH 780 0
DWIDTH 13 0
BBX 10 18 1 -5
BITMAP
1E00
3380
41C0
40C0
78C0
30C0
30C0
30C0
30C0
70C0
90C0
90C0
60C0
00C0
00C0
00C0
00C0
0080
ENDCHAR
STARTCHAR Ccedilla
ENCODING 199
SWIDTH 660 0
DWIDTH 11 0
BBX 9 13 1 0
BITMAP
1C00
6300
8180
0180
0180
0180
0180
0180
0180
0780
0980
0980
0700
ENDCHAR
STARTCHAR Egrave
ENCODING 200
SWIDTH 780 0
DWIDTH 13 0
BBX 11 14 1 0
BITMAP
0060
1F60
6340
80C0
99C0
A6C0
E4C0
78C0
60C0
60C0
60C0
60C0
60C0
60C0
ENDCHAR
STARTCHAR Eacute
ENCODING 201
SWIDTH 840 0
DWIDTH 14 0
BBX 11 13 1 0
BITMAP
7020
9860
9860
7860
1860
1E60
1A60
18E0
1F60
1860
1860
1860
3F80
ENDCHAR
STARTCHAR Ecircumflex
ENCODING 202
SWIDTH 840 0
DWIDTH 14 0
BBX 13 14 1 0
BITMAP
0030
1E30
21E0
41C0
4EC0
19C0
30C0
30C0
30C0
30C0
38C0
34C0
34C0
18C0
ENDCHAR
STARTCHAR Ediaeresis
ENCODING 203
SWIDTH 900 0
DWIDTH 15 0
BBX 12 13 1 0
BITMAP
7060
9890
9890
78E0
19E0
1960
1A60
1C60
1860
1860
1860
1860
1860
ENDCHAR
STARTCHAR Igrave
ENCODING 204
SWIDTH 900 0
DWIDTH 15 0
BBX 14 14 1 0
BITMAP
0064
6094
909C
9270
7330
3330
3330
34B0
34B0
34B0
3870
3870
3070
3030
ENDCHAR
STARTCHAR Iacute
ENCODING 205
SWIDTH 780 0
DWIDTH 13 0
BBX 10 13 1 0
BITMAP
3E00
4380
80C0
B0C0
68C0
48C0
70C0
60C0
60C0
60C0
60C0
3180
1E00
ENDCHAR
STARTCHAR Icircumflex
ENCODING 206
SWIDTH 720 0
DWIDTH 12 0
BBX 9 13 1 0
BITMAP
3D80
C700
8300
C700
3B00
3300
CB00
CB00
F300
C300
C300
6600
3800
ENDCHAR
STARTCHAR Idiaeresis
ENCODING 207
SWIDTH 780 0
DWIDTH 13 0
BBX 9 13 1 0
BITMAP
0380
0780
7580
8D80
8980
C980
7180
0180
0180
0180
0180
0180
0180
ENDCHAR
STARTCHAR ETH
ENCODING 208
SWIDTH 660 0
DWIDTH 11 0
BBX 10 12 1 0
BITMAP
7040
8840
8880
D380
7E00
0000
0000
7040
8840
8880
D380
7E00
ENDCHAR
STARTCHAR Ntilde
ENCODING 209
SWIDTH 0 0
DWIDTH 0 0
BBX 9 5 -8 15
BITMAP
7080
8880
8900
D700
3C00
ENDCHAR
STARTCHAR Ograve
ENCODING 210
SWIDTH 540 0
DWIDTH 9 0
BBX 7 13 1 0
BITMAP
78
8C
06
06
06
06
06
06
06
06
06
06
06
ENDCHAR
STARTCHAR Oacute
ENCODING 211
SWIDTH 540 0
DWIDTH 9 0
BBX 13 20 -5 0
BITMAP
7000
8800
8800
8800
7000
0000
0000
01E0
0230
0018
0018
0018
0018
0018
0018
0018
0018
0018
0018
0018
ENDCHAR
STARTCHAR Ocircumflex
ENCODING 212
SWIDTH 0 0
DWIDTH 0 0
BBX 10 6 -11 15
BITMAP
1F00
6180
4080
FE40
03C0
0040
ENDCHAR
STARTCHAR Otilde
ENCODING 213
SWIDTH 0 0
DWIDTH 0 0
BBX 10 6 -12 15
BITMAP
0180
3D80
4380
8080
FE80
01C0
ENDCHAR
STARTCHAR Odiaeresis
ENCODING 214
SWIDTH 0 0
DWIDTH 0 0
BBX 11 7 -11 15
BITMAP
00C0
1F20
61C0
40C0
FF40
01C0
0040
ENDCHAR
STARTCHAR multiply
ENCODING 215
SWIDTH 0 0
DWIDTH 0 0
BBX 10 7 -11 15
BITMAP
02C0
02C0
1FC0
71C0
40C0
FF40
00C0
ENDCHAR
STARTCHAR Ooblique
ENCODING 216
SWIDTH 0 0
DWIDTH 0 0
BBX 4 5 -6 -6
BITMAP
60
B0
70
30
30
ENDCHAR
STARTCHAR Ugrave
ENCODING 217
SWIDTH 0 0
DWIDTH 0 0
BBX 7 6 -9 -7
BITMAP
60
96
96
76
16
1C
ENDCHAR
STARTCHAR Uacute
ENCODING 218
SWIDTH 0 0
DWIDTH 0 0
BBX 3 3 -5 -5
BITMAP
E0
E0
E0
ENDCHAR
STARTCHAR Ucircumflex
ENCODING 219
SWIDTH 420 0
DWIDTH 7 0
BBX 0 0 0 0
BITMAP
ENDCHAR
STARTCHAR Udiaeresis
ENCODING 220
SWIDTH 420 0
DWIDTH 7 0
BBX 7 3 0 -3
BITMAP
FE
FE
82
ENDCHAR
STARTCHAR ssharp
ENCODING 223
SWIDTH 840 0
DWIDTH 14 0
BBX 12 17 1 -1
BITMAP
0600
0600
FF80
76C0
3660
3660
3660
36C0
3F00
36E0
3630
3630
3630
3670
3FE0
FFC0
0600
ENDCHAR
STARTCHAR agrave
ENCODING 224
SWIDTH 300 0
DWIDTH 5 0
BBX 4 13 1 0
BITMAP
40
C0
C0
C0
C0
C0
C0
C0
C0
E0
90
90
60
ENDCHAR
STARTCHAR aacute
ENCODING 225
SWIDTH 720 0
DWIDTH 12 0
BBX 11 13 1 0
BITMAP
4080
C180
C180
C180
C180
C180
C180
C180
C180
E1C0
9120
9120
60C0
ENDCHAR
STARTCHAR acircumflex
ENCODING 226
SWIDTH 660 0
DWIDTH 11 0
BBX 9 21 1 0
BITMAP
3800
5F80
C700
3000
0C00
0600
0600
0600
0600
0600
0600
0600
0600
0600
0600
0600
0600
0600
0900
0900
0600
ENDCHAR
STARTCHAR atilde
ENCODING 227
SWIDTH 600 0
DWIDTH 10 0
BBX 8 21 1 0
BITMAP
38
4C
AC
9C
5C
2C
0C
0C
0C
0C
0C
0C
0C
0C
0C
0C
0C
0E
09
09
06
ENDCHAR
STARTCHAR adiaeresis
ENCODING 228
SWIDTH 660 0
DWIDTH 11 0
BBX 9 22 1 0
BITMAP
C000
4E00
5600
5600
5600
5600
2600
0600
0600
0600
0600
0600
0600
0600
0600
0600
0600
0600
0700
0480
0480
0300
ENDCHAR
STARTCHAR aring
ENCODING 229
SWIDTH 540 0
DWIDTH 9 0
BBX 7 18 1 -5
BITMAP
78
8E
06
06
06
06
06
06
06
06
06
06
06
06
06
06
06
06
ENDCHAR
STARTCHAR ae
ENCODING 230
SWIDTH 840 0
DWIDTH 14 0
BBX 10 17 1 -4
BITMAP
3300
4D80
80C0
80C0
B0C0
90C0
70C0
00C0
00C0
00C0
00C0
00C0
00C0
00C0
00C0
00C0
00C0
ENDCHAR
STARTCHAR ccedilla
ENCODING 231
SWIDTH 0 0
DWIDTH 0 0
BBX 8 9 -10 15
BITMAP
03
03
03
7C
C0
86
87
B3
4E
ENDCHAR
STARTCHAR egrave
ENCODING 232
SWIDTH 0 0
DWIDTH 0 0
BBX 2 4 -5 23
BITMAP
C0
C0
C0
C0
ENDCHAR
STARTCHAR eacute
ENCODING 233
SWIDTH 0 0
DWIDTH 0 0
BBX 7 6 -5 24
BITMAP
02
62
92
74
2C
F0
ENDCHAR
STARTCHAR ecircumflex
ENCODING 234
SWIDTH 0 0
DWIDTH 0 0
BBX 7 6 -7 24
BITMAP
02
02
52
AA
EC
48
ENDCHAR
STARTCHAR ediaeresis
ENCODING 235
SWIDTH 0 0
DWIDTH 0 0
BBX 5 4 -6 24
BITMAP
20
F8
F8
20
ENDCHAR
STARTCHAR igrave
ENCODING 236
SWIDTH 0 0
DWIDTH 0 0
BBX 6 7 -3 21
BITMAP
08
0C
18
70
A0
A0
40
ENDCHAR
STARTCHAR iacute
ENCODING 237
SWIDTH 0 0
DWIDTH 0 0
BBX 5 5 -7 14
BITMAP
70
88
88
88
70
ENDCHAR
STARTCHAR icircumflex
ENCODING 238
SWIDTH 0 0
DWIDTH 0 0
BBX 5 8 -6 15
BITMAP
38
40
40
70
80
80
90
60
ENDCHAR
STARTCHAR idiaeresis
ENCODING 239
SWIDTH 840 0
DWIDTH 14 0
BBX 11 11 1 0
BITMAP
1F00
2080
4040
8E20
9F20
9F20
9F20
8E20
4040
2080
1F00
ENDCHAR
STARTCHAR eth
ENCODING 240
SWIDTH 780 0
DWIDTH 13 0
BBX 10 9 1 0
BITMAP
3F00
6180
C0C0
C0C0
C0C0
C0C0
C0C0
6180
3F00
ENDCHAR
STARTCHAR ntilde
ENCODING 241
SWIDTH 780 0
DWIDTH 13 0
BBX 10 9 1 0
BITMAP
1E00
7F80
C180
8C40
9E40
9E40
CE40
4C80
3100
ENDCHAR
STARTCHAR ograve
ENCODING 242
SWIDTH 1080 0
DWIDTH 18 0
BBX 15 15 1 0
BITMAP
E000
6000
6000
6000
6000
6000
61CC
63FE
6632
6412
65D2
65D2
6392
6004
3FF8
ENDCHAR
STARTCHAR oacute
ENCODING 243
SWIDTH 960 0
DWIDTH 16 0
BBX 14 9 1 0
BITMAP
1E70
3F78
61CC
C084
8084
9884
5C8C
6D88
3B10
ENDCHAR
STARTCHAR ocircumflex
ENCODING 244
SWIDTH 960 0
DWIDTH 16 0
BBX 13 14 1 0
BITMAP
0018
0018
0018
0030
01C0
0F00
3800
61C0
62E0
C2E0
C300
E100
71E0
3E18
ENDCHAR
STARTCHAR otilde
ENCODING 245
SWIDTH 1020 0
DWIDTH 17 0
BBX 14 14 1 0
BITMAP
000C
038C
0488
0498
07F0
03C0
1C60
70F0
60F0
C0B0
C080
E0C0
71F0
1E18
ENDCHAR
STARTCHAR odiaeresis
ENCODING 246
SWIDTH 840 0
DWIDTH 14 0
BBX 11 15 1 0
BITMAP
C000
4000
4000
2000
2000
2000
3F00
30C0
00C0
1060
3860
3860
20C0
31C0
0F00
ENDCHAR
STARTCHAR division
ENCODING 247
SWIDTH 1020 0
DWIDTH 17 0
BBX 14 15 1 0
BITMAP
0020
0030
0038
0008
000C
0004
1CE4
3DE4
6734
C214
C014
C618
4E18
6E30
1C60
ENDCHAR
STARTCHAR oslash
ENCODING 248
SWIDTH 960 0
DWIDTH 16 0
BBX 13 14 1 0
BITMAP
0018
0018
0018
0018
0018
3E30
7FE0
61E0
8000
8060
9870
7E70
73B0
30E0
ENDCHAR
STARTCHAR ugrave
ENCODING 249
SWIDTH 780 0
DWIDTH 13 0
BBX 10 15 1 0
BITMAP
0040
0040
0040
7F80
6000
4000
6080
3F80
6000
C300
8380
8380
C080
6100
3E00
ENDCHAR
STARTCHAR uacute
ENCODING 250
SWIDTH 900 0
DWIDTH 15 0
BBX 13 13 1 0
BITMAP
0398
0798
7598
8D98
8998
C998
7198
0198
0198
0198
0198
0198
0198
ENDCHAR
STARTCHAR ucircumflex
ENCODING 251
SWIDTH 1560 0
DWIDTH 26 0
BBX 24 12 1 0
BITMAP
1E0000
630000
400000
C00000
800000
802221
802641
806EA2
C05BB6
40891C
618000
1E0000
ENDCHAR
STARTCHAR udiaeresis
ENCODING 252
SWIDTH 0 0
DWIDTH 0 0
BBX 4 6 -6 -13
BITMAP
60
90
B0
70
30
30
ENDCHAR
STARTCHAR yacute
ENCODING 253
SWIDTH 0 0
DWIDTH 0 0
BBX 7 6 -9 -13
BITMAP
60
96
96
76
16
1C
ENDCHAR
STARTCHAR thorn
ENCODING 254
SWIDTH 0 0
DWIDTH 0 0
BBX 3 3 -4 -11
BITMAP
E0
E0
E0
ENDCHAR
ENDFONT
